<svg width="60" height="60" viewBox="0 0 60 60" fill="none" xmlns="http://www.w3.org/2000/svg">
<g clip-path="url(#clip0)">
<path d="M1.34996 41.4594L41.459 1.35034L44.9996 4.89098L4.8906 45L1.34996 41.4594Z" fill="#F97C09"/>
<path d="M18.5402 60.0001L0 41.4599L41.4599 0L60.0001 18.5402L52.64 25.9003L51.2896 24.5499L57.2993 18.5402L41.4599 2.70083L2.70083 41.4599L18.5402 57.2993L24.5499 51.2896L25.9003 52.64L18.5402 60.0001Z" fill="black"/>
<path d="M53.1995 25.1094L45.0001 16.9099L37.9197 23.9903L42.9744 29.045C43.2295 29.3 43.3699 29.639 43.3699 30C43.3699 30.3609 43.2295 30.6999 42.9744 30.955L30.955 42.9734C30.4477 43.4812 29.5501 43.4803 29.0451 42.9734L23.9903 37.9187L20.1121 41.797L16.91 45L25.1095 53.1995C26.1456 54.2356 27.5799 54.8297 29.0451 54.8297C30.5102 54.8297 31.9445 54.2356 32.9806 53.1995L53.1995 32.9806C54.251 31.93 54.8297 30.532 54.8297 29.045C54.8297 27.5579 54.251 26.16 53.1995 25.1094Z" fill="#F97C09"/>
<path d="M36.0093 24.5499L45.5592 15L46.9096 16.3509L37.3597 25.9003L36.0093 24.5499Z" fill="black"/>
<path d="M14.9996 45.5592L24.5495 36.0098L25.8999 37.3602L16.35 46.91L14.9996 45.5592Z" fill="black"/>
</g>
<defs>
<clipPath id="clip0">
<rect width="60" height="60" fill="white"/>
</clipPath>
</defs>
</svg>
