<svg width="73" height="70" viewBox="0 0 73 70" fill="none" xmlns="http://www.w3.org/2000/svg">
<g clip-path="url(#clip0)">
<path d="M14.9186 15.2673C8.42355 15.2673 3.14075 20.5509 3.14075 27.0452C3.14075 33.5396 8.42355 38.8231 14.9186 38.8231C21.413 38.8231 26.6965 33.5396 26.6965 27.0452C26.6965 20.5509 21.413 15.2673 14.9186 15.2673ZM14.9186 31.7564C12.3165 31.7564 10.2075 29.6466 10.2075 27.0452C10.2075 24.4439 12.3165 22.3341 14.9186 22.3341C17.52 22.3341 19.6298 24.4439 19.6298 27.0452C19.6298 29.6466 17.52 31.7564 14.9186 31.7564Z" fill="#F97C09"/>
<path d="M14.9187 21.5491C11.8887 21.5491 9.42236 24.0151 9.42236 27.0454C9.42236 30.0754 11.8887 32.5418 14.9187 32.5418C17.9487 32.5418 20.4151 30.0754 20.4151 27.0454C20.4151 24.0151 17.9487 21.5491 14.9187 21.5491ZM14.9187 30.9714C12.7541 30.9714 10.9927 29.2101 10.9927 27.0454C10.9927 24.8804 12.7541 23.1195 14.9187 23.1195C17.0834 23.1195 18.8447 24.8804 18.8447 27.0454C18.8447 29.2101 17.0834 30.9714 14.9187 30.9714Z" fill="black"/>
<path d="M36.0096 27.038L48.9998 13.6897L42.4004 7.09033L29.2312 20.2596L25.4678 16.4962C22.6498 13.6786 18.9037 12.1266 14.9187 12.1266C10.9337 12.1266 7.18751 13.6786 4.36956 16.4962C1.5516 19.3134 0 23.0603 0 27.0453C0 31.0299 1.55237 34.7761 4.36956 37.594C7.18674 40.4124 10.9337 41.964 14.9187 41.964C18.9037 41.964 22.6498 40.4116 25.4678 37.594L35.4694 27.5932L35.471 27.5916L36.0169 27.0453L36.0096 27.038ZM42.4004 9.31057L46.7945 13.7047L46.5676 13.9378L46.5565 13.927L46.124 14.3595C45.5382 14.9446 44.7599 15.2674 43.931 15.2674C42.2206 15.2674 40.8301 13.8768 40.8301 12.1665C40.8301 11.3372 41.1529 10.5593 41.7376 9.97346L42.1704 9.54099L42.4004 9.31057ZM31.8003 19.9107L33.2082 21.3189L34.3185 20.2086L32.9106 18.8008L34.9411 16.7699L36.3489 18.1781L37.4593 17.0678L36.0514 15.66L39.2731 12.4383C39.4111 14.8284 41.3507 16.7377 43.7535 16.829L34.8986 25.9269L30.3415 21.3699L31.8003 19.9107ZM24.3575 36.4841C21.8363 39.0045 18.4843 40.3936 14.9187 40.3936C11.3531 40.3936 8.00108 39.0045 5.47987 36.4841C2.95866 33.9637 1.57039 30.6109 1.57039 27.0453C1.57039 23.4797 2.95943 20.1277 5.47987 17.6065C8.00031 15.0849 11.3531 13.697 14.9187 13.697C18.4843 13.697 21.8363 15.086 24.3575 17.6065L33.7963 27.0453L24.3575 36.4841Z" fill="black"/>
</g>
<rect x="57.8079" y="14" width="9.76649" height="25.748" transform="rotate(45 57.8079 14)" fill="#F97C09"/>
<rect x="57.8079" y="35.3457" width="6.21504" height="25.748" transform="rotate(45 57.8079 35.3457)" fill="#F97C09"/>
<rect x="65.9695" y="23.4172" width="4.43931" height="8.87862" transform="rotate(45 65.9695 23.4172)" fill="#F97C09"/>
<rect x="33.3231" y="57.3191" width="4.43931" height="8.87862" transform="rotate(45 33.3231 57.3191)" fill="#F97C09"/>
<rect x="33.951" y="39.1125" width="9.76649" height="22.1966" transform="rotate(45 33.951 39.1125)" fill="#F97C09"/>
<rect x="57.8079" y="15.0607" width="19.8087" height="56.2111" transform="rotate(45 57.8079 15.0607)" stroke="black" stroke-width="1.5"/>
<defs>
<clipPath id="clip0">
<rect width="49" height="49" fill="white"/>
</clipPath>
</defs>
</svg>
