<svg width="51" height="65" viewBox="0 0 51 65" fill="none" xmlns="http://www.w3.org/2000/svg">
<mask id="path-1-inside-1" fill="white">
<path fill-rule="evenodd" clip-rule="evenodd" d="M50.7055 25.2055C50.7055 35.742 44.2405 44.7685 35.0608 48.5345V58.5231H17.6777V49.1735C7.58654 45.8822 0.294708 36.3954 0.294708 25.2055C0.294708 11.2849 11.5796 6.10352e-05 25.5001 6.10352e-05C39.4207 6.10352e-05 50.7055 11.2849 50.7055 25.2055ZM34.7021 59.2679H17.8985V64.0689H34.7021V59.2679Z"/>
</mask>
<path fill-rule="evenodd" clip-rule="evenodd" d="M50.7055 25.2055C50.7055 35.742 44.2405 44.7685 35.0608 48.5345V58.5231H17.6777V49.1735C7.58654 45.8822 0.294708 36.3954 0.294708 25.2055C0.294708 11.2849 11.5796 6.10352e-05 25.5001 6.10352e-05C39.4207 6.10352e-05 50.7055 11.2849 50.7055 25.2055ZM34.7021 59.2679H17.8985V64.0689H34.7021V59.2679Z" fill="white"/>
<path d="M35.0608 48.5345L34.4535 47.0542L33.4608 47.4614V48.5345H35.0608ZM35.0608 58.5231V60.1231H36.6608V58.5231H35.0608ZM17.6777 58.5231H16.0777V60.1231H17.6777V58.5231ZM17.6777 49.1735H19.2777V48.0124L18.1739 47.6524L17.6777 49.1735ZM17.8985 59.2679V57.6679H16.2985V59.2679H17.8985ZM34.7021 59.2679H36.3021V57.6679H34.7021V59.2679ZM17.8985 64.0689H16.2985V65.6689H17.8985V64.0689ZM34.7021 64.0689V65.6689H36.3021V64.0689H34.7021ZM35.6681 50.0147C45.4274 46.0109 52.3055 36.4133 52.3055 25.2055H49.1055C49.1055 35.0706 43.0535 43.526 34.4535 47.0542L35.6681 50.0147ZM36.6608 58.5231V48.5345H33.4608V58.5231H36.6608ZM17.6777 60.1231H35.0608V56.9231H17.6777V60.1231ZM16.0777 49.1735V58.5231H19.2777V49.1735H16.0777ZM-1.30529 25.2055C-1.30529 37.1082 6.45151 47.195 17.1816 50.6947L18.1739 47.6524C8.72156 44.5695 1.89471 35.6826 1.89471 25.2055H-1.30529ZM25.5001 -1.59994C10.6959 -1.59994 -1.30529 10.4013 -1.30529 25.2055H1.89471C1.89471 12.1686 12.4632 1.60006 25.5001 1.60006V-1.59994ZM52.3055 25.2055C52.3055 10.4013 40.3043 -1.59994 25.5001 -1.59994V1.60006C38.537 1.60006 49.1055 12.1686 49.1055 25.2055H52.3055ZM17.8985 60.8679H34.7021V57.6679H17.8985V60.8679ZM19.4985 64.0689V59.2679H16.2985V64.0689H19.4985ZM34.7021 62.4689H17.8985V65.6689H34.7021V62.4689ZM33.1021 59.2679V64.0689H36.3021V59.2679H33.1021Z" fill="black" mask="url(#path-1-inside-1)"/>
<path d="M45.1923 22.9181V21.6426H43.9169V21.0049C43.9169 20.8357 43.8497 20.6735 43.7301 20.5539C43.6105 20.4343 43.4483 20.3671 43.2791 20.3671H8.84114C8.672 20.3671 8.50979 20.4343 8.39019 20.5539C8.27059 20.6735 8.2034 20.8357 8.2034 21.0049V21.6426H6.92792V22.9181H8.2034V24.1936H6.92792V25.469H8.2034V26.1068C8.2034 26.2759 8.27059 26.4381 8.39019 26.5577C8.50979 26.6773 8.672 26.7445 8.84114 26.7445H43.2791C43.4483 26.7445 43.6105 26.6773 43.7301 26.5577C43.8497 26.4381 43.9169 26.2759 43.9169 26.1068V25.469H45.1923V24.1936H43.9169V22.9181H45.1923ZM10.7544 25.469H9.47888V21.6426H10.7544V25.469ZM40.0904 25.469H12.0298V21.6426H40.0904V25.469ZM42.6414 25.469H41.3659V21.6426H42.6414V25.469Z" fill="black"/>
<path d="M25.4224 8.25006H26.6979V12.0765H25.4224V8.25006Z" fill="black"/>
<path d="M14.7845 13.183L15.6864 12.2811L18.3921 14.9868L17.4902 15.8887L14.7845 13.183Z" fill="black"/>
<path d="M14.7818 33.9256L17.4875 31.2199L18.3894 32.1218L15.6837 34.8275L14.7818 33.9256Z" fill="black"/>
<path d="M25.4224 35.0352H26.6979V38.8616H25.4224V35.0352Z" fill="black"/>
<path d="M33.7203 32.1213L34.6222 31.2194L37.3279 33.9251L36.426 34.827L33.7203 32.1213Z" fill="black"/>
<path d="M33.7218 14.9901L36.4275 12.2843L37.3294 13.1862L34.6237 15.892L33.7218 14.9901Z" fill="black"/>
</svg>
