<svg width="71" height="66" viewBox="0 0 71 66" fill="none" xmlns="http://www.w3.org/2000/svg">
<path d="M23.2456 33.89L34.193 14H43.1754L34.193 30.32H53L21 65L38.1228 33.89H23.2456Z" stroke="black" stroke-width="1.6"/>
<path d="M0 32.5C0.4 32.5 6.5 32.5 9.5 32.5" stroke="black"/>
<path d="M13 1C13.2 1.34641 16.25 6.62917 17.75 9.22724" stroke="black"/>
<path d="M13 63.2273C13.2 62.8809 16.25 57.5981 17.75 55.0001" stroke="black"/>
<path d="M70.75 32.7273C70.35 32.7273 64.25 32.7273 61.25 32.7273" stroke="black"/>
<path d="M57.75 64.2273C57.55 63.8809 54.5 58.5981 53 56.0001" stroke="black"/>
<path d="M57.75 2C57.55 2.34641 54.5 7.62917 53 10.2272" stroke="black"/>
</svg>
