<svg width="105" height="104" viewBox="0 0 105 104" fill="none" xmlns="http://www.w3.org/2000/svg">
<mask id="path-1-inside-1" fill="white">
<path fill-rule="evenodd" clip-rule="evenodd" d="M57.6898 50.1585C63.1527 48.0151 67.0001 42.8777 67.0001 36.8809C67.0001 28.958 60.2844 22.5353 52.0001 22.5353C43.7158 22.5353 37.0001 28.958 37.0001 36.8809C37.0001 43.2496 41.3396 48.649 47.3449 50.5222L47.3449 55.8435L57.6898 55.8435L57.6898 50.1585Z"/>
</mask>
<path fill-rule="evenodd" clip-rule="evenodd" d="M57.6898 50.1585C63.1527 48.0151 67.0001 42.8777 67.0001 36.8809C67.0001 28.958 60.2844 22.5353 52.0001 22.5353C43.7158 22.5353 37.0001 28.958 37.0001 36.8809C37.0001 43.2496 41.3396 48.649 47.3449 50.5222L47.3449 55.8435L57.6898 55.8435L57.6898 50.1585Z" fill="white"/>
<path d="M57.6898 50.1585L57.1419 48.7621L56.1898 49.1357L56.1898 50.1585L57.6898 50.1585ZM47.3449 50.5222L48.8449 50.5222L48.8449 49.4188L47.7916 49.0902L47.3449 50.5222ZM47.3449 55.8435L45.8449 55.8435L45.8449 57.3435L47.3449 57.3435L47.3449 55.8435ZM57.6898 55.8435L57.6898 57.3435L59.1898 57.3435L59.1898 55.8435L57.6898 55.8435ZM65.5001 36.8809C65.5001 42.2084 62.0807 46.8243 57.1419 48.7621L58.2376 51.5548C64.2246 49.2058 68.5001 43.5469 68.5001 36.8809L65.5001 36.8809ZM52.0001 24.0353C59.5197 24.0353 65.5001 29.8488 65.5001 36.8809L68.5001 36.8809C68.5001 28.0673 61.0491 21.0353 52.0001 21.0353L52.0001 24.0353ZM38.5001 36.8809C38.5001 29.8488 44.4805 24.0353 52.0001 24.0353L52.0001 21.0353C42.9512 21.0353 35.5001 28.0673 35.5001 36.8809L38.5001 36.8809ZM47.7916 49.0902C42.3582 47.3954 38.5001 42.5377 38.5001 36.8809L35.5001 36.8809C35.5001 43.9615 40.321 49.9025 46.8983 51.9542L47.7916 49.0902ZM48.8449 55.8435L48.8449 50.5222L45.8449 50.5222L45.8449 55.8435L48.8449 55.8435ZM57.6898 54.3435L47.3449 54.3435L47.3449 57.3435L57.6898 57.3435L57.6898 54.3435ZM56.1898 50.1585L56.1898 55.8435L59.1898 55.8435L59.1898 50.1585L56.1898 50.1585Z" fill="black" mask="url(#path-1-inside-1)"/>
<path d="M51.5574 14.9999L52.5943 14.9999L52.5943 17.9748L51.5574 17.9748L51.5574 14.9999Z" fill="black"/>
<path d="M42.9095 18.8351L43.6427 18.1339L45.8423 20.2374L45.1091 20.9386L42.9095 18.8351Z" fill="#F97C09"/>
<path d="M58.3042 20.24L60.5038 18.1364L61.2369 18.8376L59.0374 20.9412L58.3042 20.24Z" fill="#F97C09"/>
<rect x="48.1594" y="56.9891" width="8.63375" height="1.36625" stroke="#F97C09" stroke-width="1.36625"/>
<path d="M55.2648 79.7418C55.2641 79.2558 55.1064 78.783 54.815 78.3934C54.5236 78.0038 54.1141 77.7182 53.6472 77.5788L53.6472 69.0967L54.2942 69.0967C54.6373 69.0963 54.9663 68.9602 55.2089 68.7183C55.4515 68.4764 55.588 68.1484 55.5884 67.8063L55.5884 63.2902C55.588 62.9481 55.4515 62.6201 55.2089 62.3782C54.9663 62.1363 54.6373 62.0003 54.2942 61.9999L51.706 61.9999C51.3629 62.0003 51.034 62.1363 50.7914 62.3782C50.5488 62.6201 50.4123 62.9481 50.4119 63.2902L50.4119 67.8063C50.4123 68.1484 50.5488 68.4764 50.7914 68.7183C51.034 68.9602 51.3629 69.0963 51.706 69.0967L52.3531 69.0967L52.3531 77.5788C51.9507 77.6986 51.5896 77.9275 51.3102 78.2401C51.0308 78.5526 50.8441 78.9365 50.7709 79.3488C50.6977 79.7611 50.741 80.1856 50.8958 80.5747C51.0507 80.9639 51.311 81.3025 51.6478 81.5527C51.9845 81.8028 52.3844 81.9547 52.8027 81.9912C53.221 82.0278 53.6413 81.9477 54.0166 81.7598C54.3919 81.5719 54.7073 81.2837 54.9278 80.9273C55.1482 80.571 55.2649 80.1605 55.2648 79.7418ZM51.706 67.8063L51.706 63.2902L54.2942 63.2894L54.2942 67.8063L51.706 67.8063ZM52.0295 79.7418C52.0295 79.5504 52.0865 79.3633 52.1931 79.2042C52.2998 79.045 52.4513 78.921 52.6287 78.8477C52.8061 78.7745 53.0012 78.7553 53.1895 78.7927C53.3778 78.83 53.5507 78.9222 53.6864 79.0575C53.8222 79.1929 53.9146 79.3653 53.9521 79.553C53.9895 79.7407 53.9703 79.9353 53.8968 80.1121C53.8234 80.289 53.699 80.4401 53.5394 80.5465C53.3797 80.6528 53.1921 80.7096 53.0001 80.7096C52.7428 80.7093 52.4961 80.6072 52.3141 80.4258C52.1322 80.2444 52.0298 79.9984 52.0295 79.7418Z" fill="#F97C09"/>
<path d="M45.6338 77.5781C45.0724 77.7331 44.59 78.0699 44.2749 78.5271C43.9597 78.9843 43.8328 79.5312 43.9174 80.0679C44.0019 80.6046 44.2923 81.0952 44.7355 81.4499C45.1786 81.8047 45.7448 81.9999 46.3306 81.9999C46.9164 81.9999 47.4826 81.8047 47.9257 81.4499C48.3689 81.0952 48.6592 80.6046 48.7438 80.0679C48.8284 79.5312 48.7015 78.9843 48.3863 78.5271C48.0711 78.0699 47.5888 77.7331 47.0274 77.5781L47.0274 69.0963L47.7242 69.0963C48.0937 69.0959 48.4479 68.9599 48.7091 68.718C48.9704 68.4761 49.1173 68.1481 49.1178 67.806L49.1178 63.2901C49.1173 62.9481 48.9704 62.6201 48.7091 62.3782C48.4479 62.1363 48.0937 62.0003 47.7242 61.9999L44.937 61.9999C44.5675 62.0003 44.2133 62.1363 43.9521 62.3782C43.6908 62.6201 43.5438 62.9481 43.5434 63.2901L43.5434 67.8061C43.5438 68.1481 43.6908 68.4761 43.9521 68.718C44.2133 68.9599 44.5675 69.0959 44.937 69.0963L45.6338 69.0963L45.6338 73.2897L42.4982 73.2897C42.3553 73.2896 42.2158 73.3303 42.0986 73.4062L38.6147 75.6642C38.5229 75.7237 38.448 75.8028 38.3962 75.8948C38.3445 75.9868 38.3175 76.089 38.3175 76.1927L38.3175 79.0958L35.776 79.0958C35.6086 78.5761 35.2448 78.1295 34.751 77.8376C34.2572 77.5458 33.6665 77.4284 33.0868 77.5067C32.5071 77.585 31.9773 77.8538 31.5941 78.2641C31.211 78.6743 31.0001 79.1986 31.0001 79.741C31.0001 80.2833 31.211 80.8076 31.5941 81.2178C31.9773 81.6281 32.5071 81.897 33.0868 81.9753C33.6665 82.0536 34.2572 81.9361 34.751 81.6443C35.2448 81.3525 35.6086 80.9058 35.776 80.3861L39.0143 80.3861C39.1991 80.3861 39.3763 80.3181 39.507 80.1971C39.6376 80.0761 39.7111 79.912 39.7111 79.741L39.7111 76.5287L42.7179 74.5799L45.6338 74.5799L45.6338 77.5781ZM47.3758 79.741C47.3758 79.9323 47.3145 80.1194 47.1996 80.2786C47.0848 80.4377 46.9216 80.5617 46.7306 80.635C46.5396 80.7082 46.3294 80.7274 46.1267 80.6901C45.9239 80.6527 45.7377 80.5606 45.5915 80.4252C45.4454 80.2899 45.3458 80.1175 45.3055 79.9297C45.2652 79.742 45.2859 79.5475 45.365 79.3706C45.4441 79.1938 45.578 79.0427 45.7499 78.9363C45.9218 78.83 46.1239 78.7733 46.3306 78.7733C46.6077 78.7735 46.8734 78.8756 47.0693 79.057C47.2653 79.2384 47.3755 79.4844 47.3758 79.741ZM44.937 67.806L44.937 63.2901L47.7242 63.2894L47.7242 67.806L44.937 67.806ZM33.4399 80.7086C33.2332 80.7086 33.0311 80.6519 32.8593 80.5456C32.6874 80.4392 32.5534 80.2881 32.4743 80.1113C32.3952 79.9345 32.3745 79.7399 32.4148 79.5522C32.4552 79.3645 32.5547 79.192 32.7009 79.0567C32.8471 78.9214 33.0333 78.8292 33.236 78.7919C33.4388 78.7545 33.6489 78.7737 33.8399 78.8469C34.0309 78.9202 34.1941 79.0442 34.309 79.2033C34.4238 79.3625 34.4851 79.5496 34.4851 79.741C34.4848 79.9975 34.3746 80.2435 34.1787 80.4249C33.9827 80.6063 33.717 80.7084 33.4399 80.7086Z" fill="black"/>
<path d="M66.2892 76.5287L66.2892 79.741C66.2892 79.912 66.3626 80.0761 66.4933 80.1971C66.6239 80.3181 66.8012 80.3861 66.986 80.3861L70.2242 80.3861C70.3916 80.9058 70.7555 81.3525 71.2492 81.6443C71.743 81.9361 72.3338 82.0536 72.9134 81.9753C73.4931 81.897 74.023 81.6281 74.4061 81.2178C74.7893 80.8076 75.0001 80.2833 75.0001 79.741C75.0001 79.1986 74.7893 78.6743 74.4061 78.2641C74.0229 77.8538 73.4931 77.585 72.9134 77.5067C72.3338 77.4284 71.743 77.5458 71.2492 77.8376C70.7555 78.1295 70.3916 78.5761 70.2242 79.0958L67.6828 79.0958L67.6828 76.1927C67.6828 76.089 67.6558 75.9868 67.604 75.8948C67.5523 75.8028 67.4774 75.7237 67.3856 75.6642L63.9016 73.4062C63.7845 73.3303 63.645 73.2896 63.502 73.2897L60.3664 73.2897L60.3664 69.0963L61.0632 69.0963C61.4327 69.0959 61.7869 68.9599 62.0482 68.718C62.3094 68.4761 62.4564 68.1481 62.4568 67.8061L62.4568 63.2901C62.4564 62.9481 62.3094 62.6201 62.0482 62.3782C61.7869 62.1363 61.4327 62.0003 61.0632 61.9999L58.2761 61.9999C57.9066 62.0003 57.5524 62.1363 57.2911 62.3782C57.0299 62.6201 56.8829 62.9481 56.8825 63.2901L56.8825 67.8061C56.8829 68.1481 57.0299 68.4761 57.2911 68.718C57.5524 68.9599 57.9066 69.0959 58.2761 69.0963L58.9729 69.0963L58.9729 77.5781C58.4115 77.7331 57.9291 78.0699 57.6139 78.5271C57.2988 78.9843 57.1719 79.5312 57.2564 80.0679C57.341 80.6046 57.6314 81.0952 58.0745 81.4499C58.5176 81.8047 59.0838 81.9999 59.6696 81.9999C60.2554 81.9999 60.8217 81.8047 61.2648 81.4499C61.7079 81.0952 61.9983 80.6046 62.0829 80.0679C62.1674 79.5312 62.0405 78.9843 61.7254 78.5271C61.4102 78.0699 60.9278 77.7331 60.3664 77.5781L60.3664 74.5799L63.2824 74.5799L66.2892 76.5287ZM72.5603 78.7733C72.767 78.7733 72.9691 78.83 73.141 78.9363C73.3129 79.0427 73.4468 79.1938 73.5259 79.3706C73.605 79.5475 73.6257 79.742 73.5854 79.9297C73.5451 80.1175 73.4455 80.2899 73.2994 80.4252C73.1532 80.5606 72.967 80.6527 72.7642 80.6901C72.5615 80.7274 72.3513 80.7082 72.1603 80.635C71.9693 80.5617 71.8061 80.4377 71.6913 80.2786C71.5764 80.1194 71.5151 79.9323 71.5151 79.741C71.5154 79.4844 71.6256 79.2384 71.8216 79.057C72.0175 78.8756 72.2832 78.7735 72.5603 78.7733ZM58.2761 67.8061L58.2761 63.2901L61.0632 63.2894L61.0632 67.8061L58.2761 67.8061ZM60.7148 79.741C60.7148 79.9323 60.6535 80.1194 60.5387 80.2786C60.4238 80.4377 60.2606 80.5617 60.0696 80.635C59.8786 80.7082 59.6685 80.7274 59.4657 80.6901C59.263 80.6527 59.0768 80.5606 58.9306 80.4252C58.7844 80.2899 58.6849 80.1175 58.6445 79.9297C58.6042 79.742 58.6249 79.5475 58.704 79.3706C58.7831 79.1938 58.9171 79.0427 59.089 78.9363C59.2609 78.83 59.4629 78.7733 59.6696 78.7733C59.9468 78.7735 60.2124 78.8756 60.4084 79.057C60.6043 79.2384 60.7145 79.4844 60.7148 79.741Z" fill="black"/>
</svg>
