<svg width="70" height="70" viewBox="0 0 70 70" fill="none" xmlns="http://www.w3.org/2000/svg">
<g clip-path="url(#clip0)">
<path d="M68.8952 11.604L66.7952 1.01537C66.6696 0.383331 66.0557 -0.0271896 65.4236 0.098227C65.4235 0.098227 65.4233 0.098227 65.4232 0.0983729L7.61951 11.5912H5.83335C5.18906 11.5912 4.66668 12.1136 4.66668 12.7579V18.7079C1.94733 19.2574 -0.00596548 21.6502 1.36893e-05 24.4245V64.0912C0.00380536 67.3112 2.61335 69.9207 5.83335 69.9245H68.8333C69.4776 69.9245 70 69.4022 70 68.7579V12.7579C69.9942 12.1419 69.5103 11.6366 68.8952 11.604ZM64.7313 2.61487L66.514 11.5912H19.5848L64.7313 2.61487ZM3.34485 21.9489L3.35068 21.9535C3.72314 21.584 4.17245 21.3012 4.66668 21.1252V27.711C4.64101 27.7029 4.61535 27.697 4.58968 27.6877C4.43903 27.6278 4.29291 27.5572 4.15218 27.4765C4.08218 27.438 4.00751 27.4077 3.93985 27.3599C3.73014 27.2279 3.53472 27.0746 3.35651 26.9025C1.98903 25.5362 1.98378 23.3215 3.34485 21.9489ZM67.6667 53.5912H51.3333V44.2579H67.6667V53.5912ZM67.6667 41.9245H50.1667C49.5224 41.9245 49 42.4469 49 43.0912V54.7579C49 55.4022 49.5224 55.9245 50.1667 55.9245H67.6667V67.5912H5.83335C3.90033 67.5912 2.33335 66.0242 2.33335 64.0912V29.0912C2.38585 29.1309 2.44418 29.1577 2.49785 29.195C2.60051 29.2674 2.70668 29.3292 2.81285 29.3945C3.00928 29.5146 3.21272 29.6228 3.42185 29.7189C3.53851 29.7714 3.65518 29.8227 3.77185 29.867C3.99628 29.9509 4.22583 30.0202 4.45901 30.0747C4.56751 30.1015 4.67251 30.1354 4.78218 30.1552C5.12868 30.2211 5.48058 30.2555 5.83335 30.2579H67.6667V41.9245ZM29.2495 27.9245C29.8903 23.46 34.0289 20.3602 38.4936 21.001C42.0826 21.516 44.9021 24.3357 45.4172 27.9245H29.2495ZM67.6667 27.9245H47.7645C47.1016 22.1635 41.894 18.0308 36.133 18.6937C31.2848 19.2517 27.46 23.0763 26.9022 27.9245H7.00001V13.9245H67.6667V27.9245Z" fill="white"/>
<path d="M64.1667 16.2578H57.1667V18.5911H63V24.4245H65.3333V17.4245C65.3333 16.78 64.811 16.2578 64.1667 16.2578Z" fill="white"/>
<path d="M10.5 16.2578C9.85572 16.2578 9.33334 16.7802 9.33334 17.4245V24.4245H11.6667V18.5911H17.5V16.2578H10.5Z" fill="white"/>
</g>
<defs>
<clipPath id="clip0">
<rect width="70" height="70" fill="white"/>
</clipPath>
</defs>
</svg>
