<svg width="70" height="77" viewBox="0 0 70 77" fill="none" xmlns="http://www.w3.org/2000/svg">
<path d="M69.2763 63.589L60.574 48.6349C60.6651 48.4989 60.7107 48.363 60.7562 48.227L62.5331 39.028L66.5426 30.554C66.6793 30.2368 66.6793 29.9196 66.5426 29.6023L62.5331 21.1283L60.7562 11.9293C60.7107 11.6121 60.4828 11.3402 60.2095 11.1589L51.9628 6.67271L45.1285 0.283221C44.9007 0.0566437 44.5818 -0.0339866 44.2173 0.0113289L34.9227 1.18953L25.5825 0.0113289C25.2636 -0.0339866 24.9447 0.0566437 24.6713 0.283221L17.837 6.67271L9.59035 11.1589C9.31698 11.2949 9.08917 11.6121 9.0436 11.9293L7.2667 21.1283L3.25726 29.6023C3.12057 29.9196 3.12057 30.2368 3.25726 30.554L7.2667 39.028L9.0436 48.227C9.08917 48.363 9.13473 48.5442 9.22585 48.6349L0.523553 63.589C0.295744 63.9515 0.341305 64.4046 0.569114 64.7672C0.796923 65.1297 1.20698 65.311 1.61704 65.2656L15.0578 63.453L20.2518 75.9148C20.4341 76.3226 20.7985 76.5492 21.2086 76.5945C21.2542 76.5945 21.2542 76.5945 21.2997 76.5945C21.7098 76.5945 22.0743 76.3679 22.2565 76.0507L31.9612 59.3746L34.9683 59.0121L37.9753 59.3746L47.68 76.0507C47.8622 76.4133 48.2267 76.5945 48.6368 76.5945C48.6824 76.5945 48.6824 76.5945 48.7279 76.5945C49.138 76.5492 49.5025 76.3226 49.6847 75.9148L54.8332 63.4077L68.2739 65.2203C68.684 65.2656 69.094 65.0844 69.3218 64.7219C69.5041 64.4046 69.5041 63.9515 69.2763 63.589ZM21.4364 73.0146L16.8347 61.8217C16.6524 61.4138 16.2424 61.1419 15.8323 61.1419C15.7867 61.1419 15.7412 61.1419 15.6956 61.1419L3.57619 62.7733L11.0939 49.8131L17.837 53.4836L24.6713 59.8731C24.7169 59.9184 24.808 59.9637 24.8535 60.009C24.8535 60.009 24.8991 60.009 24.8991 60.0544C24.9447 60.0997 24.9902 60.0997 25.0358 60.0997C25.0814 60.0997 25.0814 60.0997 25.1269 60.0997C25.1725 60.0997 25.218 60.145 25.2636 60.145C25.3092 60.145 25.3092 60.145 25.3547 60.145H25.4003C25.4458 60.145 25.4914 60.145 25.537 60.145L29.0908 59.6918L21.4364 73.0146ZM34.9227 56.7916C34.8771 56.7916 34.8316 56.7916 34.786 56.7916L31.0955 57.2448L25.8559 57.9245L19.295 51.7616C19.2494 51.7163 19.1583 51.6257 19.0672 51.5804L11.2306 47.3207L11.1394 47.2754L9.45366 38.4389C9.45366 38.3482 9.4081 38.2576 9.36254 38.167L5.53535 30.0555L9.36254 21.9893C9.4081 21.8987 9.45366 21.8081 9.45366 21.7175L11.1394 12.8809L19.0672 8.57596C19.1583 8.53064 19.2039 8.48533 19.295 8.3947L25.8559 2.23179L34.786 3.36468C34.8771 3.36468 34.9683 3.36468 35.0594 3.36468L43.9895 2.23179L50.5959 8.3947C50.6415 8.44001 50.7326 8.53064 50.8238 8.57596L58.7515 12.8809L60.4373 21.7175C60.4373 21.8081 60.4828 21.8987 60.5284 21.9893L64.3556 30.1008L60.5284 38.2123C60.4828 38.3029 60.4373 38.3936 60.4373 38.4842L58.7515 47.3207L58.6604 47.366L50.8693 51.6257C50.7782 51.671 50.7326 51.7163 50.6415 51.8069L44.0806 57.9698L38.841 57.2901L35.1505 56.837C35.0138 56.7916 34.9683 56.7916 34.9227 56.7916ZM54.1953 61.1419C53.6941 61.0966 53.193 61.3685 53.0107 61.8217L48.409 73.0146L40.709 59.7371L44.2629 60.1903C44.5818 60.2356 44.9007 60.145 45.1741 59.9184L52.0084 53.5289L58.7515 49.8584L66.2692 62.8186L54.1953 61.1419Z" fill="white"/>
<path d="M57.7492 30.1007C57.7492 17.5936 47.4978 7.39758 34.9228 7.39758C22.3477 7.39758 12.0963 17.5936 12.0963 30.1007C12.0963 42.6077 22.3477 52.8037 34.9228 52.8037C47.4978 52.8037 57.7492 42.6077 57.7492 30.1007ZM34.9228 50.5833C23.5323 50.5833 14.2833 41.3842 14.2833 30.0553C14.2833 18.7265 23.5323 9.52741 34.9228 9.52741C46.3132 9.52741 55.5622 18.7265 55.5622 30.0553C55.5622 41.3842 46.3132 50.5833 34.9228 50.5833Z" fill="white"/>
<g clip-path="url(#clip0)">
<path d="M20.675 35.7298L40.7295 15.6753L42.4999 17.4456L22.4453 37.5001L20.675 35.7298Z" fill="white"/>
<path d="M29.2701 45.0001L20 35.73L40.73 15L50.0001 24.2701L46.32 27.9502L45.6448 27.275L48.6496 24.2701L40.73 16.3504L21.3504 35.73L29.2701 43.6496L32.275 40.6448L32.9502 41.32L29.2701 45.0001Z" fill="white"/>
<path d="M46.5998 27.5548L42.5001 23.4551L38.9599 26.9952L41.4873 29.5226C41.6148 29.6501 41.685 29.8196 41.685 30.0001C41.685 30.1806 41.6148 30.3501 41.4873 30.4776L35.4776 36.4868C35.2239 36.7407 34.7751 36.7403 34.5226 36.4868L31.9952 33.9595L30.0561 35.8986L28.455 37.5001L32.5548 41.5999C33.0728 42.1179 33.79 42.415 34.5226 42.415C35.2551 42.415 35.9723 42.1179 36.4904 41.5999L46.5998 31.4904C47.1256 30.9651 47.4149 30.2661 47.4149 29.5226C47.4149 28.7791 47.1256 28.0801 46.5998 27.5548Z" fill="white"/>
<path d="M38.0046 27.2749L42.7796 22.5L43.4548 23.1754L38.6798 27.9501L38.0046 27.2749Z" fill="white"/>
<path d="M27.4998 37.7796L32.2748 33.0049L32.95 33.6801L28.175 38.455L27.4998 37.7796Z" fill="white"/>
</g>
<defs>
<clipPath id="clip0">
<rect width="30" height="30" fill="white" transform="translate(20 15)"/>
</clipPath>
</defs>
</svg>
