<svg width="120" height="120" viewBox="0 0 120 120" fill="none" xmlns="http://www.w3.org/2000/svg">
<g clip-path="url(#clip0)">
<rect x="-0.214768" y="59.5391" width="84.5046" height="84.5046" transform="rotate(-45 -0.214768 59.5391)" stroke="#F97C09" stroke-dasharray="2 2"/>
<g clip-path="url(#clip1)">
<path d="M31.35 71.4594L71.459 31.3503L74.9996 34.891L34.8906 75L31.35 71.4594Z" fill="#F97C09"/>
<path d="M48.5402 90.0001L30 71.4599L71.4599 30L90.0001 48.5402L82.64 55.9003L81.2896 54.5499L87.2993 48.5402L71.4599 32.7008L32.7008 71.4599L48.5402 87.2993L54.5499 81.2896L55.9003 82.64L48.5402 90.0001Z" fill="black"/>
<path d="M83.1995 55.1094L75.0001 46.9099L67.9197 53.9903L72.9744 59.045C73.2295 59.3 73.3699 59.639 73.3699 60C73.3699 60.3609 73.2295 60.6999 72.9744 60.955L60.955 72.9734C60.4477 73.4812 59.5501 73.4803 59.0451 72.9734L53.9903 67.9187L50.1121 71.797L46.91 75L55.1095 83.1995C56.1456 84.2356 57.5799 84.8297 59.0451 84.8297C60.5102 84.8297 61.9445 84.2356 62.9806 83.1995L83.1995 62.9806C84.251 61.93 84.8297 60.532 84.8297 59.045C84.8297 57.5579 84.251 56.16 83.1995 55.1094Z" fill="#F97C09"/>
<path d="M66.0093 54.5499L75.5592 45L76.9096 46.3509L67.3597 55.9003L66.0093 54.5499Z" fill="black"/>
<path d="M44.9996 75.5592L54.5495 66.0098L55.8999 67.3602L46.35 76.91L44.9996 75.5592Z" fill="black"/>
</g>
</g>
<defs>
<clipPath id="clip0">
<rect width="120" height="120" fill="white"/>
</clipPath>
<clipPath id="clip1">
<rect width="60" height="60" fill="white" transform="translate(30 30)"/>
</clipPath>
</defs>
</svg>
