<svg width="120" height="120" viewBox="0 0 120 120" fill="none" xmlns="http://www.w3.org/2000/svg">
<g clip-path="url(#clip0)">
<rect x="-0.214768" y="59.5391" width="84.5046" height="84.5046" transform="rotate(-45 -0.214768 59.5391)" stroke="#F97C09" stroke-dasharray="2 2"/>
<g clip-path="url(#clip1)">
<path d="M40.9186 43.2673C34.4235 43.2673 29.1407 48.5509 29.1407 55.0452C29.1407 61.5396 34.4235 66.8231 40.9186 66.8231C47.413 66.8231 52.6965 61.5396 52.6965 55.0452C52.6965 48.5509 47.413 43.2673 40.9186 43.2673ZM40.9186 59.7564C38.3165 59.7564 36.2075 57.6466 36.2075 55.0452C36.2075 52.4439 38.3165 50.3341 40.9186 50.3341C43.52 50.3341 45.6298 52.4439 45.6298 55.0452C45.6298 57.6466 43.52 59.7564 40.9186 59.7564Z" fill="#F97C09"/>
<path d="M40.9187 49.5491C37.8887 49.5491 35.4224 52.0151 35.4224 55.0454C35.4224 58.0754 37.8887 60.5418 40.9187 60.5418C43.9487 60.5418 46.4151 58.0754 46.4151 55.0454C46.4151 52.0151 43.9487 49.5491 40.9187 49.5491ZM40.9187 58.9714C38.7541 58.9714 36.9927 57.2101 36.9927 55.0454C36.9927 52.8804 38.7541 51.1195 40.9187 51.1195C43.0834 51.1195 44.8447 52.8804 44.8447 55.0454C44.8447 57.2101 43.0834 58.9714 40.9187 58.9714Z" fill="black"/>
<path d="M62.0096 55.038L74.9998 41.6897L68.4004 35.0903L55.2312 48.2596L51.4678 44.4962C48.6498 41.6786 44.9037 40.1266 40.9187 40.1266C36.9337 40.1266 33.1875 41.6786 30.3696 44.4962C27.5516 47.3134 26 51.0603 26 55.0453C26 59.0299 27.5524 62.7761 30.3696 65.594C33.1867 68.4124 36.9337 69.964 40.9187 69.964C44.9037 69.964 48.6498 68.4116 51.4678 65.594L61.4694 55.5932L61.471 55.5916L62.0169 55.0453L62.0096 55.038ZM68.4004 37.3106L72.7945 41.7047L72.5676 41.9378L72.5565 41.927L72.124 42.3595C71.5382 42.9446 70.7599 43.2674 69.931 43.2674C68.2206 43.2674 66.8301 41.8768 66.8301 40.1665C66.8301 39.3372 67.1529 38.5593 67.7376 37.9735L68.1704 37.541L68.4004 37.3106ZM57.8003 47.9107L59.2082 49.3189L60.3185 48.2086L58.9106 46.8008L60.9411 44.7699L62.3489 46.1781L63.4593 45.0678L62.0514 43.66L65.2731 40.4383C65.4111 42.8284 67.3507 44.7377 69.7535 44.829L60.8986 53.9269L56.3415 49.3699L57.8003 47.9107ZM50.3575 64.4841C47.8363 67.0045 44.4843 68.3936 40.9187 68.3936C37.3531 68.3936 34.0011 67.0045 31.4799 64.4841C28.9587 61.9637 27.5704 58.6109 27.5704 55.0453C27.5704 51.4797 28.9594 48.1277 31.4799 45.6065C34.0003 43.0849 37.3531 41.697 40.9187 41.697C44.4843 41.697 47.8363 43.086 50.3575 45.6065L59.7963 55.0453L50.3575 64.4841Z" fill="black"/>
</g>
<rect x="83.8079" y="42" width="9.76649" height="25.748" transform="rotate(45 83.8079 42)" fill="#F97C09"/>
<rect x="83.8079" y="63.3457" width="6.21504" height="25.748" transform="rotate(45 83.8079 63.3457)" fill="#F97C09"/>
<rect x="91.9695" y="51.4172" width="4.43931" height="8.87862" transform="rotate(45 91.9695 51.4172)" fill="#F97C09"/>
<rect x="59.3231" y="85.3191" width="4.43931" height="8.87862" transform="rotate(45 59.3231 85.3191)" fill="#F97C09"/>
<rect x="59.951" y="67.1125" width="9.76649" height="22.1966" transform="rotate(45 59.951 67.1125)" fill="#F97C09"/>
<rect x="83.8079" y="43.0607" width="19.8087" height="56.2111" transform="rotate(45 83.8079 43.0607)" stroke="black" stroke-width="1.5"/>
</g>
<defs>
<clipPath id="clip0">
<rect width="120" height="120" fill="white"/>
</clipPath>
<clipPath id="clip1">
<rect width="49" height="49" fill="white" transform="translate(26 28)"/>
</clipPath>
</defs>
</svg>
