<svg width="230" height="76" viewBox="0 0 230 76" fill="none" xmlns="http://www.w3.org/2000/svg">
<rect width="20" height="20" fill="#F97C09"/>
<rect x="210" y="56" width="20" height="20" fill="#F97C09"/>
<path d="M23.4053 56V53.2H29.8453V31.76L24.7653 34.96L23.3653 32.52L30.7653 27.8H33.1253V53.2H39.1653V56H23.4053ZM46.0297 56V53.52L55.6697 43.12C57.0297 41.6267 58.003 40.2667 58.5897 39.04C59.203 37.8133 59.5097 36.56 59.5097 35.28C59.5097 32 57.603 30.36 53.7897 30.36C50.9364 30.36 48.4164 31.4267 46.2297 33.56L44.9897 31C46.0297 29.9333 47.3497 29.08 48.9497 28.44C50.5764 27.7733 52.283 27.44 54.0697 27.44C56.8964 27.44 59.0564 28.1067 60.5497 29.44C62.0697 30.7467 62.8297 32.6133 62.8297 35.04C62.8297 36.72 62.4164 38.3733 61.5897 40C60.763 41.6 59.4964 43.3067 57.7897 45.12L50.2297 53.2H63.9897V56H46.0297ZM78.4141 56.36C75.1874 56.36 72.7341 55.12 71.0541 52.64C69.3741 50.16 68.5341 46.5733 68.5341 41.88C68.5341 37.16 69.3741 33.5733 71.0541 31.12C72.7341 28.6667 75.1874 27.44 78.4141 27.44C81.6674 27.44 84.1207 28.6667 85.7741 31.12C87.4541 33.5467 88.2941 37.12 88.2941 41.84C88.2941 46.56 87.4407 50.16 85.7341 52.64C84.0541 55.12 81.6141 56.36 78.4141 56.36ZM78.4141 53.52C80.6541 53.52 82.3074 52.5733 83.3741 50.68C84.4674 48.7867 85.0141 45.84 85.0141 41.84C85.0141 37.84 84.4807 34.92 83.4141 33.08C82.3474 31.2133 80.6807 30.28 78.4141 30.28C76.1741 30.28 74.5074 31.2133 73.4141 33.08C72.3474 34.9467 71.8141 37.8667 71.8141 41.84C71.8141 45.84 72.3474 48.7867 73.4141 50.68C74.5074 52.5733 76.1741 53.52 78.4141 53.52Z" fill="#222222"/>
<path d="M103.872 56V36.56H117.512V39.16H107.112V56H103.872ZM121.295 63.2V36.56H124.455V40.04C125.041 38.84 125.908 37.9067 127.055 37.24C128.228 36.5467 129.588 36.2 131.135 36.2C132.868 36.2 134.375 36.6133 135.655 37.44C136.961 38.24 137.961 39.4 138.655 40.92C139.375 42.4133 139.735 44.2 139.735 46.28C139.735 48.3333 139.375 50.12 138.655 51.64C137.961 53.1333 136.961 54.2933 135.655 55.12C134.375 55.9467 132.868 56.36 131.135 56.36C129.641 56.36 128.308 56.0267 127.135 55.36C125.961 54.6933 125.095 53.7733 124.535 52.6V63.2H121.295ZM130.455 53.76C132.268 53.76 133.721 53.12 134.815 51.84C135.908 50.5333 136.455 48.68 136.455 46.28C136.455 43.8533 135.908 42 134.815 40.72C133.721 39.44 132.268 38.8 130.455 38.8C128.641 38.8 127.188 39.44 126.095 40.72C125.001 42 124.455 43.8533 124.455 46.28C124.455 48.68 125.001 50.5333 126.095 51.84C127.188 53.12 128.641 53.76 130.455 53.76ZM144.966 56V36.56H148.206V44.64H158.806V36.56H162.046V56H158.806V47.28H148.206V56H144.966ZM167.042 58.52L164.482 57.76L174.722 25.92L177.322 26.68L167.042 58.52ZM177.388 56V36.56H180.067L187.388 49.56L194.708 36.56H197.348V56H194.468V41.84L188.188 52.88H186.548L180.268 41.84V56H177.388Z" fill="#F97C09"/>
<path d="M199.804 37V35.76L204.624 30.56C205.304 29.8133 205.791 29.1333 206.084 28.52C206.391 27.9067 206.544 27.28 206.544 26.64C206.544 25 205.591 24.18 203.684 24.18C202.257 24.18 200.997 24.7133 199.904 25.78L199.284 24.5C199.804 23.9667 200.464 23.54 201.264 23.22C202.077 22.8867 202.931 22.72 203.824 22.72C205.237 22.72 206.317 23.0533 207.064 23.72C207.824 24.3733 208.204 25.3067 208.204 26.52C208.204 27.36 207.997 28.1867 207.584 29C207.171 29.8 206.537 30.6533 205.684 31.56L201.904 35.6H208.784V37H199.804Z" fill="black"/>
</svg>
