<svg width="121" height="131" viewBox="0 0 121 131" fill="none" xmlns="http://www.w3.org/2000/svg">
<rect x="18.2086" y="28.2087" width="84.5046" height="84.5046" stroke="#F97C09" stroke-dasharray="2 2"/>
<mask id="path-2-inside-1" fill="white">
<path fill-rule="evenodd" clip-rule="evenodd" d="M85.7055 63.2055C85.7055 73.742 79.2405 82.7685 70.0608 86.5345V96.5231H52.6777V87.1735C42.5865 83.8822 35.2947 74.3954 35.2947 63.2055C35.2947 49.2849 46.5796 38.0001 60.5001 38.0001C74.4207 38.0001 85.7055 49.2849 85.7055 63.2055ZM69.7021 97.2679H52.8985V102.069H69.7021V97.2679Z"/>
</mask>
<path fill-rule="evenodd" clip-rule="evenodd" d="M85.7055 63.2055C85.7055 73.742 79.2405 82.7685 70.0608 86.5345V96.5231H52.6777V87.1735C42.5865 83.8822 35.2947 74.3954 35.2947 63.2055C35.2947 49.2849 46.5796 38.0001 60.5001 38.0001C74.4207 38.0001 85.7055 49.2849 85.7055 63.2055ZM69.7021 97.2679H52.8985V102.069H69.7021V97.2679Z" fill="white"/>
<path d="M70.0608 86.5345L69.4535 85.0542L68.4608 85.4614V86.5345H70.0608ZM70.0608 96.5231V98.1231H71.6608V96.5231H70.0608ZM52.6777 96.5231H51.0777V98.1231H52.6777V96.5231ZM52.6777 87.1735H54.2777V86.0124L53.1739 85.6524L52.6777 87.1735ZM52.8985 97.2679V95.6679H51.2985V97.2679H52.8985ZM69.7021 97.2679H71.3021V95.6679H69.7021V97.2679ZM52.8985 102.069H51.2985V103.669H52.8985V102.069ZM69.7021 102.069V103.669H71.3021V102.069H69.7021ZM70.6681 88.0147C80.4274 84.0109 87.3055 74.4133 87.3055 63.2055H84.1055C84.1055 73.0706 78.0535 81.526 69.4535 85.0542L70.6681 88.0147ZM71.6608 96.5231V86.5345H68.4608V96.5231H71.6608ZM52.6777 98.1231H70.0608V94.9231H52.6777V98.1231ZM51.0777 87.1735V96.5231H54.2777V87.1735H51.0777ZM33.6947 63.2055C33.6947 75.1082 41.4515 85.195 52.1816 88.6947L53.1739 85.6524C43.7216 82.5695 36.8947 73.6826 36.8947 63.2055H33.6947ZM60.5001 36.4001C45.6959 36.4001 33.6947 48.4013 33.6947 63.2055H36.8947C36.8947 50.1686 47.4632 39.6001 60.5001 39.6001V36.4001ZM87.3055 63.2055C87.3055 48.4013 75.3043 36.4001 60.5001 36.4001V39.6001C73.537 39.6001 84.1055 50.1686 84.1055 63.2055H87.3055ZM52.8985 98.8679H69.7021V95.6679H52.8985V98.8679ZM54.4985 102.069V97.2679H51.2985V102.069H54.4985ZM69.7021 100.469H52.8985V103.669H69.7021V100.469ZM68.1021 97.2679V102.069H71.3021V97.2679H68.1021Z" fill="black" mask="url(#path-2-inside-1)"/>
<rect x="42" y="94.0001" width="15" height="15" fill="#F97C09"/>
<rect x="95" y="28.4854" width="12" height="12" transform="rotate(-45 95 28.4854)" fill="#F97C09"/>
<path d="M80.1923 60.9181V59.6426H78.9169V59.0049C78.9169 58.8357 78.8497 58.6735 78.7301 58.5539C78.6105 58.4343 78.4483 58.3671 78.2791 58.3671H43.8411C43.672 58.3671 43.5098 58.4343 43.3902 58.5539C43.2706 58.6735 43.2034 58.8357 43.2034 59.0049V59.6426H41.9279V60.9181H43.2034V62.1936H41.9279V63.469H43.2034V64.1068C43.2034 64.2759 43.2706 64.4381 43.3902 64.5577C43.5098 64.6773 43.672 64.7445 43.8411 64.7445H78.2791C78.4483 64.7445 78.6105 64.6773 78.7301 64.5577C78.8497 64.4381 78.9169 64.2759 78.9169 64.1068V63.469H80.1923V62.1936H78.9169V60.9181H80.1923ZM45.7544 63.469H44.4789V59.6426H45.7544V63.469ZM75.0904 63.469H47.0298V59.6426H75.0904V63.469ZM77.6414 63.469H76.3659V59.6426H77.6414V63.469Z" fill="black"/>
<path d="M60.4224 46.2501H61.6979V50.0765H60.4224V46.2501Z" fill="black"/>
<path d="M49.7845 51.183L50.6864 50.2811L53.3921 52.9868L52.4902 53.8887L49.7845 51.183Z" fill="black"/>
<path d="M49.7818 71.9256L52.4875 69.2199L53.3894 70.1218L50.6837 72.8275L49.7818 71.9256Z" fill="black"/>
<path d="M60.4224 73.0352H61.6979V76.8616H60.4224V73.0352Z" fill="black"/>
<path d="M68.7203 70.1213L69.6222 69.2194L72.3279 71.9251L71.426 72.827L68.7203 70.1213Z" fill="black"/>
<path d="M68.7218 52.9901L71.4275 50.2843L72.3294 51.1862L69.6237 53.892L68.7218 52.9901Z" fill="black"/>
</svg>
