<svg width="90" height="92" viewBox="0 0 90 92" fill="none" xmlns="http://www.w3.org/2000/svg">
<rect x="23" y="75" width="8" height="8" transform="rotate(-90 23 75)" fill="#F97C09"/>
<path d="M30.2456 49.89L41.193 30H50.1754L41.193 46.32H60L28 81L45.1228 49.89H30.2456Z" stroke="black" stroke-width="1.6"/>
<path d="M7 48.5C7.4 48.5 13.5 48.5 16.5 48.5" stroke="black"/>
<path d="M20 17C20.2 17.3464 23.25 22.6292 24.75 25.2272" stroke="black"/>
<path d="M20 79.2273C20.2 78.8809 23.25 73.5981 24.75 71.0001" stroke="black"/>
<path d="M77.75 48.7273C77.35 48.7273 71.25 48.7273 68.25 48.7273" stroke="black"/>
<path d="M64.75 80.2273C64.55 79.8809 61.5 74.5981 60 72.0001" stroke="black"/>
<path d="M64.75 18C64.55 18.3464 61.5 23.6292 60 26.2272" stroke="black"/>
<rect x="0.5" y="91.0046" width="84.5046" height="84.5046" transform="rotate(-90 0.5 91.0046)" stroke="#F97C09" stroke-dasharray="2 2"/>
<rect x="78" y="12" width="12" height="12" transform="rotate(-90 78 12)" fill="#F97C09"/>
</svg>
