<svg width="126" height="121" viewBox="0 0 126 121" fill="none" xmlns="http://www.w3.org/2000/svg">
<rect x="65.4611" y="120.215" width="84.5046" height="84.5046" transform="rotate(-135 65.4611 120.215)" stroke="#F97C09" stroke-dasharray="2 2"/>
<mask id="path-2-inside-1" fill="white">
<path fill-rule="evenodd" clip-rule="evenodd" d="M71.6898 58.1585C77.1527 56.0151 81.0001 50.8777 81.0001 44.8809C81.0001 36.958 74.2844 30.5353 66.0001 30.5353C57.7158 30.5353 51.0001 36.958 51.0001 44.8809C51.0001 51.2496 55.3396 56.649 61.3449 58.5222L61.3449 63.8435L71.6898 63.8435L71.6898 58.1585Z"/>
</mask>
<path fill-rule="evenodd" clip-rule="evenodd" d="M71.6898 58.1585C77.1527 56.0151 81.0001 50.8777 81.0001 44.8809C81.0001 36.958 74.2844 30.5353 66.0001 30.5353C57.7158 30.5353 51.0001 36.958 51.0001 44.8809C51.0001 51.2496 55.3396 56.649 61.3449 58.5222L61.3449 63.8435L71.6898 63.8435L71.6898 58.1585Z" fill="white"/>
<path d="M71.6898 58.1585L71.1419 56.7621L70.1898 57.1357L70.1898 58.1585L71.6898 58.1585ZM61.3449 58.5222L62.8449 58.5222L62.8449 57.4188L61.7916 57.0902L61.3449 58.5222ZM61.3449 63.8435L59.8449 63.8435L59.8449 65.3435L61.3449 65.3435L61.3449 63.8435ZM71.6898 63.8435L71.6898 65.3435L73.1898 65.3435L73.1898 63.8435L71.6898 63.8435ZM79.5001 44.8809C79.5001 50.2084 76.0807 54.8243 71.1419 56.7621L72.2376 59.5548C78.2246 57.2058 82.5001 51.5469 82.5001 44.8809L79.5001 44.8809ZM66.0001 32.0353C73.5197 32.0353 79.5001 37.8488 79.5001 44.8809L82.5001 44.8809C82.5001 36.0673 75.0491 29.0353 66.0001 29.0353L66.0001 32.0353ZM52.5001 44.8809C52.5001 37.8488 58.4805 32.0353 66.0001 32.0353L66.0001 29.0353C56.9512 29.0353 49.5001 36.0673 49.5001 44.8809L52.5001 44.8809ZM61.7916 57.0902C56.3582 55.3954 52.5001 50.5377 52.5001 44.8809L49.5001 44.8809C49.5001 51.9615 54.321 57.9025 60.8983 59.9542L61.7916 57.0902ZM62.8449 63.8435L62.8449 58.5222L59.8449 58.5222L59.8449 63.8435L62.8449 63.8435ZM71.6898 62.3435L61.3449 62.3435L61.3449 65.3435L71.6898 65.3435L71.6898 62.3435ZM70.1898 58.1585L70.1898 63.8435L73.1898 63.8435L73.1898 58.1585L70.1898 58.1585Z" fill="black" mask="url(#path-2-inside-1)"/>
<path d="M65.5574 22.9999L66.5943 22.9999L66.5943 25.9748L65.5574 25.9748L65.5574 22.9999Z" fill="black"/>
<path d="M56.9095 26.8351L57.6427 26.1339L59.8423 28.2374L59.1091 28.9386L56.9095 26.8351Z" fill="#F97C09"/>
<path d="M72.3042 28.24L74.5038 26.1364L75.2369 26.8376L73.0374 28.9412L72.3042 28.24Z" fill="#F97C09"/>
<rect x="62.1594" y="64.9891" width="8.63375" height="1.36625" stroke="#F97C09" stroke-width="1.36625"/>
<rect x="10.357" y="55.6166" width="10" height="10" transform="rotate(90 10.357 55.6166)" fill="#F97C09"/>
<path d="M69.2648 87.7418C69.2641 87.2558 69.1064 86.783 68.815 86.3934C68.5236 86.0038 68.1141 85.7182 67.6472 85.5788L67.6472 77.0967L68.2942 77.0967C68.6373 77.0963 68.9663 76.9602 69.2089 76.7183C69.4515 76.4764 69.588 76.1484 69.5884 75.8063L69.5884 71.2902C69.588 70.9481 69.4515 70.6201 69.2089 70.3782C68.9663 70.1363 68.6373 70.0003 68.2942 69.9999L65.706 69.9999C65.3629 70.0003 65.034 70.1363 64.7914 70.3782C64.5488 70.6201 64.4123 70.9481 64.4119 71.2902L64.4119 75.8063C64.4123 76.1484 64.5488 76.4764 64.7914 76.7183C65.034 76.9602 65.3629 77.0963 65.706 77.0967L66.3531 77.0967L66.3531 85.5788C65.9507 85.6986 65.5896 85.9275 65.3102 86.2401C65.0308 86.5526 64.8441 86.9365 64.7709 87.3488C64.6977 87.7611 64.741 88.1856 64.8958 88.5747C65.0507 88.9639 65.311 89.3025 65.6478 89.5527C65.9845 89.8028 66.3844 89.9547 66.8027 89.9912C67.221 90.0278 67.6413 89.9477 68.0166 89.7598C68.3919 89.5719 68.7073 89.2837 68.9278 88.9273C69.1482 88.571 69.2649 88.1605 69.2648 87.7418ZM65.706 75.8063L65.706 71.2902L68.2942 71.2894L68.2942 75.8063L65.706 75.8063ZM66.0295 87.7418C66.0295 87.5504 66.0865 87.3633 66.1931 87.2042C66.2998 87.045 66.4513 86.921 66.6287 86.8477C66.8061 86.7745 67.0012 86.7553 67.1895 86.7927C67.3778 86.83 67.5507 86.9222 67.6864 87.0575C67.8222 87.1929 67.9146 87.3653 67.9521 87.553C67.9895 87.7407 67.9703 87.9353 67.8968 88.1121C67.8234 88.289 67.699 88.4401 67.5394 88.5465C67.3797 88.6528 67.1921 88.7096 67.0001 88.7096C66.7428 88.7093 66.4961 88.6072 66.3141 88.4258C66.1322 88.2444 66.0298 87.9984 66.0295 87.7418Z" fill="#F97C09"/>
<path d="M59.6338 85.5781C59.0724 85.7331 58.59 86.0699 58.2749 86.5271C57.9597 86.9843 57.8328 87.5312 57.9174 88.0679C58.0019 88.6046 58.2923 89.0952 58.7355 89.4499C59.1786 89.8047 59.7448 89.9999 60.3306 89.9999C60.9164 89.9999 61.4826 89.8047 61.9257 89.4499C62.3689 89.0952 62.6592 88.6046 62.7438 88.0679C62.8284 87.5312 62.7015 86.9843 62.3863 86.5271C62.0711 86.0699 61.5888 85.7331 61.0274 85.5781L61.0274 77.0963L61.7242 77.0963C62.0937 77.0959 62.4479 76.9599 62.7091 76.718C62.9704 76.4761 63.1173 76.1481 63.1178 75.806L63.1178 71.2901C63.1173 70.9481 62.9704 70.6201 62.7091 70.3782C62.4479 70.1363 62.0937 70.0003 61.7242 69.9999L58.937 69.9999C58.5675 70.0003 58.2133 70.1363 57.9521 70.3782C57.6908 70.6201 57.5438 70.9481 57.5434 71.2901L57.5434 75.8061C57.5438 76.1481 57.6908 76.4761 57.9521 76.718C58.2133 76.9599 58.5675 77.0959 58.937 77.0963L59.6338 77.0963L59.6338 81.2897L56.4982 81.2897C56.3553 81.2896 56.2158 81.3303 56.0986 81.4062L52.6147 83.6642C52.5229 83.7237 52.448 83.8028 52.3962 83.8948C52.3445 83.9868 52.3175 84.089 52.3175 84.1927L52.3175 87.0958L49.776 87.0958C49.6086 86.5761 49.2448 86.1295 48.751 85.8376C48.2572 85.5458 47.6665 85.4284 47.0868 85.5067C46.5071 85.585 45.9773 85.8538 45.5941 86.2641C45.211 86.6743 45.0001 87.1986 45.0001 87.741C45.0001 88.2833 45.211 88.8076 45.5941 89.2178C45.9773 89.6281 46.5071 89.897 47.0868 89.9753C47.6665 90.0536 48.2572 89.9361 48.751 89.6443C49.2448 89.3525 49.6086 88.9058 49.776 88.3861L53.0143 88.3861C53.1991 88.3861 53.3763 88.3181 53.507 88.1971C53.6376 88.0761 53.7111 87.912 53.7111 87.741L53.7111 84.5287L56.7179 82.5799L59.6338 82.5799L59.6338 85.5781ZM61.3758 87.741C61.3758 87.9323 61.3145 88.1194 61.1996 88.2786C61.0848 88.4377 60.9216 88.5617 60.7306 88.635C60.5396 88.7082 60.3294 88.7274 60.1267 88.6901C59.9239 88.6527 59.7377 88.5606 59.5915 88.4252C59.4454 88.2899 59.3458 88.1175 59.3055 87.9297C59.2652 87.742 59.2859 87.5475 59.365 87.3706C59.4441 87.1938 59.578 87.0427 59.7499 86.9363C59.9218 86.83 60.1239 86.7733 60.3306 86.7733C60.6077 86.7735 60.8734 86.8756 61.0693 87.057C61.2653 87.2384 61.3755 87.4844 61.3758 87.741ZM58.937 75.806L58.937 71.2901L61.7242 71.2894L61.7242 75.806L58.937 75.806ZM47.4399 88.7086C47.2332 88.7086 47.0311 88.6519 46.8593 88.5456C46.6874 88.4392 46.5534 88.2881 46.4743 88.1113C46.3952 87.9345 46.3745 87.7399 46.4148 87.5522C46.4552 87.3645 46.5547 87.192 46.7009 87.0567C46.8471 86.9214 47.0333 86.8292 47.236 86.7919C47.4388 86.7545 47.6489 86.7737 47.8399 86.8469C48.0309 86.9202 48.1941 87.0442 48.309 87.2033C48.4238 87.3625 48.4851 87.5496 48.4851 87.741C48.4848 87.9975 48.3746 88.2435 48.1787 88.4249C47.9827 88.6063 47.717 88.7084 47.4399 88.7086Z" fill="black"/>
<path d="M80.2892 84.5287L80.2892 87.741C80.2892 87.912 80.3626 88.0761 80.4933 88.1971C80.6239 88.3181 80.8012 88.3861 80.986 88.3861L84.2242 88.3861C84.3916 88.9058 84.7555 89.3525 85.2492 89.6443C85.743 89.9361 86.3338 90.0536 86.9134 89.9753C87.4931 89.897 88.023 89.6281 88.4061 89.2178C88.7893 88.8076 89.0001 88.2833 89.0001 87.741C89.0001 87.1986 88.7893 86.6743 88.4061 86.2641C88.0229 85.8538 87.4931 85.585 86.9134 85.5067C86.3338 85.4284 85.743 85.5458 85.2492 85.8376C84.7555 86.1295 84.3916 86.5761 84.2242 87.0958L81.6828 87.0958L81.6828 84.1927C81.6828 84.089 81.6558 83.9868 81.604 83.8948C81.5523 83.8028 81.4774 83.7237 81.3856 83.6642L77.9016 81.4062C77.7845 81.3303 77.645 81.2896 77.502 81.2897L74.3664 81.2897L74.3664 77.0963L75.0632 77.0963C75.4327 77.0959 75.7869 76.9599 76.0482 76.718C76.3094 76.4761 76.4564 76.1481 76.4568 75.8061L76.4568 71.2901C76.4564 70.9481 76.3094 70.6201 76.0482 70.3782C75.7869 70.1363 75.4327 70.0003 75.0632 69.9999L72.2761 69.9999C71.9066 70.0003 71.5524 70.1363 71.2911 70.3782C71.0299 70.6201 70.8829 70.9481 70.8825 71.2901L70.8825 75.8061C70.8829 76.1481 71.0299 76.4761 71.2911 76.718C71.5524 76.9599 71.9066 77.0959 72.2761 77.0963L72.9729 77.0963L72.9729 85.5781C72.4115 85.7331 71.9291 86.0699 71.6139 86.5271C71.2988 86.9843 71.1719 87.5312 71.2564 88.0679C71.341 88.6046 71.6314 89.0952 72.0745 89.4499C72.5176 89.8047 73.0838 89.9999 73.6696 89.9999C74.2554 89.9999 74.8217 89.8047 75.2648 89.4499C75.7079 89.0952 75.9983 88.6046 76.0829 88.0679C76.1674 87.5312 76.0405 86.9843 75.7254 86.5271C75.4102 86.0699 74.9278 85.7331 74.3664 85.5781L74.3664 82.5799L77.2824 82.5799L80.2892 84.5287ZM86.5603 86.7733C86.767 86.7733 86.9691 86.83 87.141 86.9363C87.3129 87.0427 87.4468 87.1938 87.5259 87.3706C87.605 87.5475 87.6257 87.742 87.5854 87.9297C87.5451 88.1175 87.4455 88.2899 87.2994 88.4252C87.1532 88.5606 86.967 88.6527 86.7642 88.6901C86.5615 88.7274 86.3513 88.7082 86.1603 88.635C85.9693 88.5617 85.8061 88.4377 85.6913 88.2786C85.5764 88.1194 85.5151 87.9323 85.5151 87.741C85.5154 87.4844 85.6256 87.2384 85.8216 87.057C86.0175 86.8756 86.2832 86.7735 86.5603 86.7733ZM72.2761 75.8061L72.2761 71.2901L75.0632 71.2894L75.0632 75.8061L72.2761 75.8061ZM74.7148 87.741C74.7148 87.9323 74.6535 88.1194 74.5387 88.2786C74.4238 88.4377 74.2606 88.5617 74.0696 88.635C73.8786 88.7082 73.6685 88.7274 73.4657 88.6901C73.263 88.6527 73.0768 88.5606 72.9306 88.4252C72.7844 88.2899 72.6849 88.1175 72.6445 87.9297C72.6042 87.742 72.6249 87.5475 72.704 87.3706C72.7831 87.1938 72.9171 87.0427 73.089 86.9363C73.2609 86.83 73.4629 86.7733 73.6696 86.7733C73.9468 86.7735 74.2124 86.8756 74.4084 87.057C74.6043 87.2384 74.7145 87.4844 74.7148 87.741Z" fill="black"/>
<rect x="116.373" y="54.1521" width="9" height="9" transform="rotate(45 116.373 54.1521)" fill="#F97C09"/>
</svg>
