<svg width="454" height="476" viewBox="0 0 454 476" fill="none" xmlns="http://www.w3.org/2000/svg">
<path d="M14.8043 476L4.93478 476L4.93478 475.5L0.5 475.5L0.5 471.042L-2.16742e-07 471.042L-6.50213e-07 461.125L0.499999 461.125L0.499999 451.208L-1.08368e-06 451.208L-1.51715e-06 441.292L0.499998 441.292L0.499998 431.375L-1.95063e-06 431.375L-2.3841e-06 421.458L0.499998 421.458L0.499997 411.542L-2.81757e-06 411.542L-3.25104e-06 401.625L0.499997 401.625L0.499996 391.708L-3.68451e-06 391.708L-4.11798e-06 381.792L0.499996 381.792L0.499995 371.875L-4.55145e-06 371.875L-4.98492e-06 361.958L0.499995 361.958L0.499995 352.042L-5.41839e-06 352.042L-5.85186e-06 342.125L0.499994 342.125L0.499994 332.208L-6.28533e-06 332.208L-6.7188e-06 322.292L0.499993 322.292L0.499993 312.375L-7.15228e-06 312.375L-7.58575e-06 302.458L0.499992 302.458L0.499992 292.542L-8.01922e-06 292.542L-8.45269e-06 282.625L0.499992 282.625L0.499991 272.708L-8.88616e-06 272.708L-9.31963e-06 262.792L0.499991 262.792L0.49999 252.875L-9.7531e-06 252.875L-1.01866e-05 242.958L0.49999 242.958L0.499989 233.042L-1.062e-05 233.042L-1.10535e-05 223.125L0.499989 223.125L0.499989 213.208L-1.1487e-05 213.208L-1.19205e-05 203.292L0.499988 203.292L0.499988 193.375L-1.23539e-05 193.375L-1.27874e-05 183.458L0.499987 183.458L0.499987 173.542L-1.32209e-05 173.542L-1.36543e-05 163.625L0.499986 163.625L0.499986 153.708L-1.40878e-05 153.708L-1.45213e-05 143.792L0.499985 143.792L0.499985 133.875L-1.49548e-05 133.875L-1.53882e-05 123.958L0.499985 123.958L0.499984 114.042L-1.58217e-05 114.042L-1.62552e-05 104.125L0.499984 104.125L0.499983 94.2083L-1.66886e-05 94.2083L-1.71221e-05 84.2917L0.499983 84.2917L0.499982 74.375L-1.75556e-05 74.375L-1.79891e-05 64.4583L0.499982 64.4583L0.499982 54.5417L-1.84225e-05 54.5417L-1.8856e-05 44.625L0.499981 44.625L0.499981 34.7084L-1.92895e-05 34.7084L-1.97229e-05 24.7917L0.49998 24.7917L0.49998 14.875L-2.01564e-05 14.875L-2.05899e-05 4.95837L0.499979 4.95837L0.499979 0.50003L4.93471 0.50003L4.93471 3.03019e-05L14.8043 2.98705e-05L14.8043 0.50003L24.6738 0.500029L24.6738 2.9439e-05L34.5434 2.90076e-05L34.5434 0.500029L44.413 0.500029L44.413 2.85762e-05L54.2826 2.81448e-05L54.2826 0.500028L64.1521 0.500028L64.1521 2.77134e-05L74.0217 2.7282e-05L74.0217 0.500027L83.8912 0.500027L83.8912 2.68506e-05L93.7608 2.64192e-05L93.7608 0.500026L103.63 0.500026L103.63 2.59878e-05L113.5 2.55563e-05L113.5 0.500026L123.37 0.500025L123.37 2.51249e-05L133.239 2.46935e-05L133.239 0.500025L143.109 0.500024L143.109 2.42621e-05L152.978 2.38307e-05L152.978 0.500024L162.848 0.500023L162.848 2.33993e-05L172.717 2.29679e-05L172.717 0.500023L182.587 0.500023L182.587 2.25364e-05L192.456 2.2105e-05L192.456 0.500022L202.326 0.500022L202.326 2.16736e-05L212.196 2.12422e-05L212.196 0.500021L222.065 0.500021L222.065 2.08108e-05L231.935 2.03794e-05L231.935 0.50002L241.804 0.50002L241.804 1.9948e-05L251.674 1.95166e-05L251.674 0.50002L261.543 0.500019L261.543 1.90851e-05L271.413 1.86537e-05L271.413 0.500019L281.283 0.500018L281.283 1.82223e-05L291.152 1.77909e-05L291.152 0.500018L301.022 0.500017L301.022 1.73595e-05L310.891 1.69281e-05L310.891 0.500017L320.761 0.500016L320.761 1.64967e-05L330.63 1.60653e-05L330.63 0.500016L340.5 0.500016L340.5 1.56339e-05L350.37 1.52024e-05L350.37 0.500015L360.239 0.500015L360.239 1.4771e-05L370.109 1.43396e-05L370.109 0.500014L379.978 0.500014L379.978 1.39082e-05L389.848 1.34768e-05L389.848 0.500013L399.717 0.500013L399.717 1.30454e-05L409.587 1.2614e-05L409.587 0.500013L419.457 0.500012L419.457 1.21826e-05L429.326 1.17511e-05L429.326 0.500012L439.196 0.500011L439.196 1.13197e-05L449.065 1.08883e-05L449.065 0.500011L453.5 0.500011L453.5 4.95851L454 4.95851L454 14.8752L453.5 14.8752L453.5 24.7918L454 24.7918L454 34.7085L453.5 34.7085L453.5 44.6251L454 44.6251L454 54.5418L453.5 54.5418L453.5 64.4584L454 64.4584L454 74.3751L453.5 74.3751L453.5 84.2918L454 84.2918L454 94.2084L453.5 94.2084L453.5 104.125L454 104.125L454 114.042L453.5 114.042L453.5 123.958L454 123.958L454 133.875L453.5 133.875L453.5 143.792L454 143.792L454 153.708L453.5 153.708L453.5 163.625L454 163.625L454 173.542L453.5 173.542L453.5 183.458L454 183.458L454 193.375L453.5 193.375L453.5 203.292L454 203.292L454 213.208L453.5 213.208L453.5 223.125L454 223.125L454 233.042L453.5 233.042L453.5 242.958L454 242.958L454 252.875L453.5 252.875L453.5 262.792L454 262.792L454 272.708L453.5 272.708L453.5 282.625L454 282.625L454 292.542L453.5 292.542L453.5 302.458L454 302.458L454 312.375L453.5 312.375L453.5 322.292L454 322.292L454 332.208L453.5 332.208L453.5 342.125L454 342.125L454 352.042L453.5 352.042L453.5 361.958L454 361.958L454 371.875L453.5 371.875L453.5 381.792L454 381.792L454 391.708L453.5 391.708L453.5 401.625L454 401.625L454 411.542L453.5 411.542L453.5 421.458L454 421.458L454 431.375L453.5 431.375L453.5 441.292L454 441.292L454 451.208L453.5 451.208L453.5 461.125L454 461.125L454 471.042L453.5 471.042L453.5 475.5L449.065 475.5L449.065 476L439.196 476L439.196 475.5L429.326 475.5L429.326 476L419.457 476L419.457 475.5L409.587 475.5L409.587 476L399.717 476L399.717 475.5L389.848 475.5L389.848 476L379.978 476L379.978 475.5L370.109 475.5L370.109 476L360.239 476L360.239 475.5L350.37 475.5L350.37 476L340.5 476L340.5 475.5L330.63 475.5L330.63 476L320.761 476L320.761 475.5L310.891 475.5L310.891 476L301.022 476L301.022 475.5L291.152 475.5L291.152 476L281.283 476L281.283 475.5L271.413 475.5L271.413 476L261.544 476L261.544 475.5L251.674 475.5L251.674 476L241.804 476L241.804 475.5L231.935 475.5L231.935 476L222.065 476L222.065 475.5L212.196 475.5L212.196 476L202.326 476L202.326 475.5L192.457 475.5L192.457 476L182.587 476L182.587 475.5L172.717 475.5L172.717 476L162.848 476L162.848 475.5L152.978 475.5L152.978 476L143.109 476L143.109 475.5L133.239 475.5L133.239 476L123.37 476L123.37 475.5L113.5 475.5L113.5 476L103.63 476L103.63 475.5L93.7609 475.5L93.7609 476L83.8913 476L83.8913 475.5L74.0218 475.5L74.0218 476L64.1522 476L64.1522 475.5L54.2826 475.5L54.2826 476L44.413 476L44.413 475.5L34.5435 475.5L34.5435 476L24.6739 476L24.6739 475.5L14.8043 475.5L14.8043 476Z" stroke="#DDDDDD" stroke-dasharray="10 10"/>
</svg>
